<?xml version="1.0" encoding="UTF-8"?>
<svg id="svg1179" xmlns="http://www.w3.org/2000/svg" version="1.1" xmlns:svg="http://www.w3.org/2000/svg" xmlns:xlink="http://www.w3.org/1999/xlink" viewBox="0 0 682.7 682.7">
  <defs>
    <style>
      .cls-1 {
        stroke-miterlimit: 10;
      }

      .cls-1, .cls-2 {
        fill: none;
        stroke: #fff;
      }

      .cls-2 {
        stroke-linecap: round;
        stroke-linejoin: round;
        stroke-width: 20px;
      }

      .cls-3 {
        clip-path: url(#clippath);
      }
    </style>
    <clipPath id="clippath">
      <rect class="cls-1" width="682.7" height="682.7"/>
    </clipPath>
  </defs>
  <g id="g1185">
    <g id="g1187">
      <g>
        <g class="cls-3">
          <g id="g1189">
            <g id="g1195">
              <path id="path1197" class="cls-2" d="M95.6,538.6l127.4-125.8,42.7,42.2-203.9,201.3-51.8,9,9.1-51.2,43.1-42.6"/>
            </g>
            <g id="g1199">
              <path id="path1201" class="cls-2" d="M444.3,563.8c-4.6,15.5-13.1,30-25.5,42.2L76.2,267.9c39.6-39.1,103.8-39.1,143.4,0l199.2,196.6c16.7,16.5,26.4,37.3,29,58.8"/>
            </g>
            <g id="g1203">
              <path id="path1205" class="cls-2" d="M457.7,98.5c-90,131-238.2,169.4-238.2,169.4l199.2,196.6s40.1-145,172.8-233.9l-133.9-132.1Z"/>
            </g>
            <g id="g1207">
              <path id="path1209" class="cls-2" d="M525.9,84.7l146.8,144.9c-22.7,22.4-59.4,22.4-82.1,0l-132.8-131.1c-22.7-22.4-22.7-58.7,0-81.1l36.9,36.4"/>
            </g>
          </g>
        </g>
        <rect class="cls-1" width="682.7" height="682.7"/>
      </g>
    </g>
  </g>
</svg>