<?xml version="1.0" encoding="UTF-8"?>
<svg id="Capa_1" data-name="Capa 1" xmlns="http://www.w3.org/2000/svg" version="1.1" viewBox="0 0 512 512">
  <defs>
    <style>
      .cls-1 {
        fill: none;
        stroke: #fff;
        stroke-linecap: round;
        stroke-linejoin: round;
        stroke-width: 15px;
      }
    </style>
  </defs>
  <g>
    <path class="cls-1" d="M338.8,244.4c-17.8,33.5-39.9,57.5-64.4,76.1"/>
    <path class="cls-1" d="M293.7,220.2c-60,126.5-209.1,126.1-285.2,236.7-3.7,5.3,3.9,11.2,8.1,6.3,61.3-71.3,152.4-80.3,228.5-123.5"/>
    <path class="cls-1" d="M353.1,82.2c-9.8,15.9-12.7,34.6-8.9,52.1,2.8,12.6,9.1,24.4,18.8,34.2,7.8,7.8,17.1,13.4,26.9,16.8,24.5,8.3,52.7,2.6,72.6-17.3,31.5-31.5,39.9-83.3,41.9-114.7,1-14.8-11.4-27.2-26.2-26.2-27,1.8-69.3,8.2-100.6,30.1"/>
    <path class="cls-1" d="M389.9,185.3c-11.7,13.7-22.6,28.6-32.7,44.6-11.4,18.1-36.3,21.7-52.4,7.6-.2-.2-.4-.3-.5-.5-13.1-11.4-15.7-30.9-6-45.3,14.1-21,29.5-40.2,45.9-57.5"/>
  </g>
  <g>
    <path class="cls-1" d="M218.2,156.7c-21.1,21.9-50.2,42.2-89,50.4-42.8,9.1-80.6,28.2-106.1,72.4-2.9,5.1-10.8,1.9-9.2-3.8,9.6-33.9,34.2-81.1,97.6-99.9,28.6-8.5,53.9-22.8,73.2-45.4"/>
    <path class="cls-1" d="M259.5,114.6c-7.1,9-13.8,18.5-20.1,28.5-9.6,15.4-30.7,18.4-44.3,6.5-.1-.1-.3-.3-.5-.4-11.1-9.7-13.3-26.1-5.1-38.3,6.3-9.4,12.9-18.3,19.8-26.8"/>
    <path class="cls-1" d="M220.3,101.4c18.1,18.2,47.5,18.2,66.1-.4,20.9-20.9,26.5-55.3,27.8-76.2.6-9.8-7.5-18-17.4-17.4-20.8,1.4-55.2,6.9-76.2,27.8-18.6,18.6-18.5,47.9-.4,66.1Z"/>
  </g>
  <g>
    <path class="cls-1" d="M408.5,379.2c-21.1,21.9-50.1,42.2-89,50.4-42.8,9.1-80.6,28.2-106.1,72.4-2.9,5.1-10.8,1.9-9.2-3.8,9.6-33.9,34.2-81.1,97.6-99.9,28.6-8.5,53.9-22.8,73.2-45.4"/>
    <path class="cls-1" d="M449.8,337.1c-7.1,9-13.8,18.5-20.1,28.5-9.6,15.4-30.7,18.4-44.3,6.5-.1-.1-.3-.3-.5-.4-11.1-9.7-13.3-26.1-5.1-38.3,6.3-9.4,12.9-18.3,19.8-26.9"/>
    <path class="cls-1" d="M424.3,247.4c-4.8,3-9.4,6.4-13.4,10.5-13.4,13.4-17.1,32.3-11.4,48.6,2.2,6.4,5.9,12.4,11,17.4,10.7,10.7,25.3,15.1,39.2,13.1,9.8-1.4,19.2-5.9,26.8-13.5,20.9-20.9,26.5-55.3,27.8-76.1.6-9.9-7.5-18-17.4-17.4-8.4.6-19.1,1.8-30.2,4.5"/>
  </g>
</svg>