<?xml version="1.0" encoding="UTF-8"?>
<svg id="svg489" xmlns="http://www.w3.org/2000/svg" version="1.1" xmlns:svg="http://www.w3.org/2000/svg" xmlns:xlink="http://www.w3.org/1999/xlink" viewBox="0 0 682.7 682.7">
  <defs>
    <style>
      .cls-1 {
        stroke-miterlimit: 10;
      }

      .cls-1, .cls-2 {
        fill: none;
        stroke: #fff;
      }

      .cls-3 {
        clip-path: url(#clippath);
      }

      .cls-2 {
        stroke-linecap: round;
        stroke-linejoin: round;
        stroke-width: 26.7px;
      }
    </style>
    <clipPath id="clippath">
      <rect class="cls-1" width="682.7" height="682.7"/>
    </clipPath>
  </defs>
  <g id="g495">
    <g id="g497">
      <g>
        <g class="cls-3">
          <g id="g499">
            <g id="g505">
              <path id="path507" class="cls-2" d="M466.7,522.7h22c40.8,0,74-33.2,74-74v-129.3c0-40.8-33.2-74-74-74h-22"/>
            </g>
            <g id="g509">
              <path id="path511" class="cls-2" d="M466.7,181.3h22c76.1,0,138,61.9,138,138v129.3c0,76.1-61.9,138-138,138h-22"/>
            </g>
            <g id="g513">
              <path id="path515" class="cls-2" d="M466.7,152v458.7c0,32.4-26.3,58.7-58.7,58.7H114.7c-32.4,0-58.7-26.3-58.7-58.7V152h234.5"/>
            </g>
            <g id="g517">
              <path id="path519" class="cls-2" d="M466.7,170.7v368c0,32.4-26.3,58.7-58.7,58.7H114.7c-32.4,0-58.7-26.3-58.7-58.7V170.7"/>
            </g>
            <g id="g521">
              <path id="path523" class="cls-2" d="M138.9,262.3H56"/>
            </g>
            <g id="g525">
              <path id="path527" class="cls-2" d="M394.7,262.3h-135.8"/>
            </g>
            <g id="g529">
              <path id="path531" class="cls-2" d="M141.3,538.6h0c-16.2,0-29.3-13.1-29.3-29.3v-158.9c0-16.2,13.1-29.3,29.3-29.3h0c16.2,0,29.3,13.1,29.3,29.3v158.9c0,16.2-13.1,29.3-29.3,29.3Z"/>
            </g>
            <g id="g533">
              <path id="path535" class="cls-2" d="M258.7,538.6h0c-16.2,0-29.3-13.1-29.3-29.3v-158.9c0-16.2,13.1-29.3,29.3-29.3h0c16.2,0,29.3,13.1,29.3,29.3v158.9c0,16.2-13.1,29.3-29.3,29.3Z"/>
            </g>
            <g id="g537">
              <path id="path539" class="cls-2" d="M376,538.6h0c-16.2,0-29.3-13.1-29.3-29.3v-158.9c0-16.2,13.1-29.3,29.3-29.3h0c16.2,0,29.3,13.1,29.3,29.3v158.9c0,16.2-13.1,29.3-29.3,29.3Z"/>
            </g>
            <g id="g541">
              <path id="path543" class="cls-2" d="M466.7,120c0-29.5-23.9-53.3-53.3-53.3s-20.8,3.2-29.2,8.7c-9.5-10.7-22.8-17.7-37.9-19.1-12.6-1.2-24.5,1.7-34.5,7.4-16.2-30-48-50.4-84.5-50.4s-68.2,20.4-84.5,50.4c-11.8-6.8-26.3-9.6-41.5-6.4-24,5.1-42.1,25.2-45,49.6-2,16.9,3.2,32.5,14,45.2"/>
            </g>
            <g id="g545">
              <path id="path547" class="cls-2" d="M290.5,152c21.6,0,39.1,17.8,39.1,39.3v36.7c0,18.9,15.4,34.3,34.3,34.3s34.3-15.4,34.3-34.3v91c0,18.9,15.4,34.3,34.3,34.3h0c18.9,0,34.3-15.4,34.3-34.3V120"/>
            </g>
            <g id="g549">
              <path id="path551" class="cls-2" d="M198.9,262.3h0"/>
            </g>
          </g>
        </g>
        <rect class="cls-1" width="682.7" height="682.7"/>
      </g>
    </g>
  </g>
</svg>