<?xml version="1.0" encoding="UTF-8"?>
<svg id="svg4713" xmlns="http://www.w3.org/2000/svg" version="1.1" xmlns:svg="http://www.w3.org/2000/svg" xmlns:xlink="http://www.w3.org/1999/xlink" viewBox="0 0 682.7 682.7">
  <defs>
    <style>
      .cls-1 {
        stroke-miterlimit: 10;
      }

      .cls-1, .cls-2 {
        fill: none;
        stroke: #fff;
      }

      .cls-2 {
        stroke-linecap: round;
        stroke-linejoin: round;
        stroke-width: 20px;
      }

      .cls-3 {
        clip-path: url(#clippath);
      }
    </style>
    <clipPath id="clippath">
      <rect class="cls-1" width="682.7" height="682.7"/>
    </clipPath>
  </defs>
  <g id="g4719">
    <g id="g4721">
      <g>
        <g class="cls-3">
          <g id="g4723">
            <g id="g4729">
              <path id="path4731" class="cls-2" d="M99.7,178.7c-1.1,6.7-1.9,13.5-2.3,20.6-1.6,24.4-12.1,36.2-14.5,46.4-2.9,12.4,10.3,25.1,15.5,37.4,2.2,5.1,1.8,11-.9,15.9-10.8,19.3-24.4,32.4-40.7,44.9-9.5,7.3-16.7,13.8-16.7,25.2,0,13.3,8.3,21.9,26.1,27.4,34.1,10.5-7.1,37.2-7.1,37.2,0,0-5.7,8.2,3.6,15.7,11,8.8,16,15.3,16,15.3-16.9,12.2-7.7,25.6-7.7,25.6,0,0,8.7,1.9,15.5,6.6,3.4,2.4,5.5,7.9,3.1,12.1-4.4,7.8-10.3,17.2-6.3,33.7,6.3,25.5,27.6,34.9,49.1,38.4,15,2.5,46.2-2.8,77.9-7.1,57.6-7.8,83.2,41.4,99.6,81.9,5.1,12.5,18.6,19.2,31.6,15.9l198.8-51.2c15.4-4,24-20.5,18.5-35.4-3.1-8.3-6.3-17.4-9.2-26.7"/>
            </g>
            <g id="g4733">
              <path id="path4735" class="cls-2" d="M538.6,513.3c-4.2-25.8-3.1-48.9,9.7-60.5,80.1-72.5,94.2-112.9,94.2-206.9,0-170.5-167.5-236-303.9-236s-190,42-225.8,124"/>
            </g>
            <g id="g4737">
              <path id="path4739" class="cls-2" d="M399.5,394.3c5.1,4.1,11.3,6.9,18.2,8,4.7.7,9.3.6,13.7-.3,7.7,9.3,18.7,16,31.6,18.1,28.1,4.4,54.5-14.7,58.9-42.8.6-3.6.8-7.1.6-10.6"/>
            </g>
            <g id="g4741">
              <path id="path4743" class="cls-2" d="M391.5,368.3l26,84.6c2.1,6.8-3.6,13.3-10.6,12.2l-32.6-5.2c-7.4-1.2-13.7-6.1-16.5-13.1l-32.6-79.9"/>
            </g>
            <g id="g4745">
              <path id="path4747" class="cls-2" d="M330.5,71.7c-13.8,4.8-26,13.5-35,24.9-5.7-3.1-12-5.3-18.7-6.3-31.4-5-60.9,16.1-66.6,47.2-28.1,5-51.2,27.3-55.9,57.1-2.5,15.6.5,30.8,7.5,43.7-5.3,7.4-9,16.1-10.5,25.7-5.2,32.8,17.2,63.7,50,68.9,19.6,3.1,38.5-3.7,51.7-16.6"/>
            </g>
            <g id="g4749">
              <path id="path4751" class="cls-2" d="M442.4,349.9c11,10.5,25.2,17.9,41.3,20.5,42.1,6.7,81.7-22.1,88.3-64.2,3.2-20.2-1.7-39.8-12.4-55.4,11.4-9.7,19.6-23.4,22.1-39.3,5.6-35.5-18.6-68.8-54-74.4-.2,0-.3,0-.5,0-6.2-24.4-26.4-43.9-52.8-48.1-19.9-3.2-39.1,3.1-53.2,15.5-9.8-16.1-25.4-28.5-44.5-33.9"/>
            </g>
            <g id="g4753">
              <path id="path4755" class="cls-2" d="M242.6,249c-7.9,5.2-13.2,14-13.8,24.2-.8,15.2,9.5,28.4,23.9,31.7-2,25.2,15.7,48.1,41.1,52.1,6.6,1,13,.7,19.1-.8,5.8,7.6,14.4,13.1,24.6,14.8,12.8,2,25.2-2.6,33.6-11.2,6.3,4.2,13.6,7.2,21.6,8.5,26.3,4.2,51.2-11.4,59.6-35.7"/>
            </g>
            <g id="g4757">
              <path id="path4759" class="cls-2" d="M408.4,283.7l-25.5,25.5c-5.6,5.6-14.7,5.6-20.3,0l-69.9-69.8c-3.8-3.7-13.2-14.2-13.2-32.9,0-27.9,22.6-50.5,50.5-50.5s33.8,9.5,42.7,23.7c8.9-14.3,24.7-23.7,42.7-23.7,27.9,0,50.5,23.7,50.5,51.6,0,15.1-8.9,27-13.1,31.7,0,0-.1.1-.2.2l-11.2,11.2"/>
            </g>
          </g>
        </g>
        <rect class="cls-1" width="682.7" height="682.7"/>
      </g>
    </g>
  </g>
</svg>