<?xml version="1.0" encoding="UTF-8"?>
<svg id="Capa_2" data-name="Capa 2" xmlns="http://www.w3.org/2000/svg" version="1.1" viewBox="0 0 25 25">
  <defs>
    <style>
      .cls-1 {
        fill: red;
        stroke-width: 0px;
      }
    </style>
  </defs>
  <g id="Capa_1-2" data-name="Capa 1-2">
    <g>
      <path class="cls-1" d="M22.8,18.1c0,2.6-2.1,4.7-4.7,4.7H6.9c-2.6,0-4.7-2.1-4.7-4.7V6.9c0-2.6,2.1-4.7,4.7-4.7h11.2c2.6,0,4.7,2.1,4.7,4.7v11.2ZM18.1,0H6.9C3.1,0,0,3.1,0,6.9v11.2c0,3.8,3.1,6.9,6.9,6.9h11.2c3.8,0,6.9-3.1,6.9-6.9V6.9c0-3.8-3.1-6.9-6.9-6.9"/>
      <path class="cls-1" d="M12.5,16.7c-2.3,0-4.2-1.9-4.2-4.2s1.9-4.2,4.2-4.2,4.2,1.9,4.2,4.2-1.9,4.2-4.2,4.2M12.5,6.1c-3.6,0-6.4,2.9-6.4,6.4s2.9,6.4,6.4,6.4,6.4-2.9,6.4-6.4-2.9-6.4-6.4-6.4"/>
      <path class="cls-1" d="M19.2,4.2c-.4,0-.9.2-1.1.5-.3.3-.5.7-.5,1.2s.2.8.5,1.2c.3.3.7.5,1.1.5s.9-.2,1.1-.5c.3-.3.5-.7.5-1.2s-.2-.8-.5-1.2c-.3-.3-.7-.5-1.1-.5"/>
    </g>
  </g>
</svg>